<svg width="100" height="30" viewBox="0 0 117 38" fill="none" xmlns="http://www.w3.org/2000/svg">
<path d="M58.5455 0.36364L64.1818 0.36364C64.1818 5.42425 65.2424 8.9697 67.3636 11C69.4848 13 73.0303 14 78 14L92.5455 14C96.7273 14 100.348 14.4091 103.409 15.2273C106.47 16.0152 109 17.3182 111 19.1364C113 20.9545 114.485 23.3788 115.455 26.4091C116.424 29.4394 116.909 33.1818 116.909 37.6364L108 37.6364C108 34.1212 107.439 31.3636 106.318 29.3636C105.227 27.3333 103.545 25.9091 101.273 25.0909C99 24.2424 96.0909 23.8182 92.5455 23.8182L74.3636 23.8182C72 23.8182 69.8485 23.5152 67.9091 22.9091C65.9697 22.2727 64.303 21.1212 62.9091 19.4545C61.5151 17.7879 60.4394 15.4242 59.6818 12.3636C58.9242 9.27273 58.5455 5.27273 58.5455 0.36364ZM0.545448 37.6364C0.545448 33.1818 1.0303 29.4394 2 26.4091C2.9697 23.3788 4.45454 20.9546 6.45454 19.1364C8.45454 17.3182 10.9848 16.0152 14.0454 15.2273C17.1061 14.4091 20.7273 14 24.9091 14L39.4545 14C44.4242 14 47.9697 13 50.0909 11C52.2121 8.9697 53.2727 5.42425 53.2727 0.36364L58.9091 0.36364C58.9091 5.27273 58.5303 9.27273 57.7727 12.3636C57.0152 15.4242 55.9394 17.7879 54.5455 19.4545C53.1515 21.1212 51.4848 22.2727 49.5455 22.9091C47.6061 23.5152 45.4545 23.8182 43.0909 23.8182L24.9091 23.8182C21.3636 23.8182 18.4545 24.2424 16.1818 25.0909C13.8788 25.9091 12.1818 27.3333 11.0909 29.3636C10 31.3636 9.45454 34.1212 9.45454 37.6364L0.545448 37.6364ZM53.2727 0.36364L64.1818 0.36364L64.1818 11.0909L53.2727 11.0909L53.2727 0.36364Z" fill="#BAC5F8"/>
</svg>
