<svg width="100" height="30" viewBox="0 0 117 38" fill="none" xmlns="http://www.w3.org/2000/svg">
<path d="M58.4545 37.6364L52.8182 37.6364C52.8182 32.5758 51.7576 29.0303 49.6364 27C47.5152 25 43.9697 24 39 24L24.4545 24C20.2727 24 16.6515 23.5909 13.5909 22.7727C10.5303 21.9848 8 20.6818 6 18.8636C4 17.0455 2.51515 14.6212 1.54545 11.5909C0.575756 8.5606 0.0909077 4.81818 0.0909079 0.363634L9 0.363634C9 3.87879 9.56061 6.63636 10.6818 8.63636C11.7727 10.6667 13.4545 12.0909 15.7273 12.9091C18 13.7576 20.9091 14.1818 24.4545 14.1818L42.6364 14.1818C45 14.1818 47.1515 14.4848 49.0909 15.0909C51.0303 15.7273 52.697 16.8788 54.0909 18.5455C55.4848 20.2121 56.5606 22.5758 57.3182 25.6364C58.0758 28.7273 58.4545 32.7273 58.4545 37.6364ZM116.455 0.363639C116.455 4.81818 115.97 8.56061 115 11.5909C114.03 14.6212 112.545 17.0455 110.545 18.8636C108.545 20.6818 106.015 21.9849 102.955 22.7727C99.8939 23.5909 96.2727 24 92.0909 24L77.5455 24C72.5758 24 69.0303 25 66.9091 27C64.7879 29.0303 63.7273 32.5758 63.7273 37.6364L58.0909 37.6364C58.0909 32.7273 58.4697 28.7273 59.2273 25.6364C59.9848 22.5758 61.0606 20.2121 62.4545 18.5455C63.8485 16.8788 65.5152 15.7273 67.4545 15.0909C69.3939 14.4848 71.5455 14.1818 73.9091 14.1818L92.0909 14.1818C95.6364 14.1818 98.5455 13.7576 100.818 12.9091C103.121 12.0909 104.818 10.6667 105.909 8.63637C107 6.63637 107.545 3.87879 107.545 0.363639L116.455 0.363639ZM63.7273 37.6364L52.8182 37.6364L52.8182 26.9091L63.7273 26.9091L63.7273 37.6364Z" fill="#BAC5F8"/>
</svg>
